inDegrees=yes
name=ik_MT_2026-09-05_11h40_01210270-000-000_orientations_dedrift
DataType=double
version=3
OpenSimVersion=4.5
endheader
time	pelvis_tilt	pelvis_list	pelvis_rotation	pelvis_tx	pelvis_ty	pelvis_tz	hip_flexion_r	hip_adduction_r	hip_rotation_r	knee_angle_r	knee_angle_r_beta	ankle_angle_r	subtalar_angle_r	mtp_angle_r	hip_flexion_l	hip_adduction_l	hip_rotation_l	knee_angle_l	knee_angle_l_beta	ankle_angle_l	subtalar_angle_l	mtp_angle_l	lumbar_extension	lumbar_bending	lumbar_rotation	arm_flex_r	arm_add_r	arm_rot_r	elbow_flex_r	pro_sup_r	wrist_flex_r	wrist_dev_r	arm_flex_l	arm_add_l	arm_rot_l	elbow_flex_l	pro_sup_l	wrist_flex_l	wrist_dev_l
63.3	0.5854783345353246	1.12224559652162	-738.2686509420316	0	0.9399999999999999	0	-2.128897059859335	1.223251944521898	-3.389657449196249	4.238434209081447	0.073974632077633	7.697432866469677	0	0	32.80539585476404	4.670030583546696	-3.10773344187673	52.07821761141873	0.9089363658893537	1.451619182128537	0	0	-3.521100934464453	1.629236962215522	-6.218361950224826	9.918509863374728	-12.43809914993269	8.527927429380723	0.1024993647902077	45.00000025534055	0	0	-3.435366852448123	14.20229559895561	-29.52639288357255	93.99331592484209	45.00000025534055	0	0
63.325	0.7819972795411874	1.067011073468425	-739.2339108543451	0	0.9399999999999999	0	-3.621342707155402	0.7556136653306437	-2.760105405114099	3.574093908454108	0.06237970647799698	8.021798516450501	0	0	32.93189694089843	1.762016881573349	-1.252475431576735	46.75469441050847	0.8160233582271621	2.360594069582353	0	0	-3.851325020829273	1.577459373053731	-5.893174634158997	11.23016949944626	-13.32379685856904	10.6341355675852	0.09402737943000997	45.00000025534055	0	0	-3.414021797846142	14.75392054985768	-30.69755232579056	94.49875519919125	45.00000025534055	0	0
63.35	0.9838477110874057	0.8435598378935941	-740.4204597176031	0	0.9399999999999999	0	-4.999999814451362	0.3354240008462299	-1.93510719343882	3.252420173185029	0.05676544068036294	8.46663331819104	0	0	32.04791935847575	-1.2574079805189	-0.3311903236361013	39.61466155487872	0.6914062761958499	2.319583600768214	0	0	-4.233225891815445	1.556205478448904	-5.538870286913779	12.39130859095715	-13.97568365203609	12.89138685656503	0.08863394060671025	45.00000025534055	0	0	-3.333680917608609	15.19924675538504	-32.12243362097136	94.89839696014353	45.00000025534055	0	0
63.375	1.031875212846243	0.5612503690019073	-741.8761544295872	0	0.9399999999999999	0	-6.011734484387689	-0.05473870539351887	-1.044194020834658	3.341557677884597	0.05832118362438233	8.942576094045037	0	0	30.90133516581121	-4.290612543921949	0.04336928770231414	31.64368002408906	0.5522864038679126	1.147135226864461	0	0	-4.393902185425173	1.550435646340911	-4.99432911197658	13.26495287892513	-14.4612773405257	15.16934450059804	0.08333645346351169	45.00000025534055	0	0	-3.349273123477218	15.57925452397888	-33.48543553512866	95.21339206803194	45.00000025534055	0	0
63.4	1.112048841099761	0.1878519300684693	-743.5691575665054	0	0.9399999999999999	0	-6.854041454363707	-0.5960373458659368	-0.03021532632851658	3.926926125664082	0.06853779037542282	9.46210520482766	0	0	29.47372549767785	-7.15523304826772	0.9135031022081178	23.96083827986008	0.4181955195214529	0.03873368809147622	0	0	-4.490221001282031	1.481022058349863	-4.308981986352816	13.77670871440929	-14.72200187481201	17.15095421600922	0.07854879984402546	45.00000025534055	0	0	-3.594438539491143	15.87608741611873	-34.60491297089124	95.55662856688929	45.00000025534055	0	0
63.425	1.580571106942245	-0.3582495340361597	-745.4883097944974	0	0.9399999999999999	0	-8.024614222979594	-1.382574273649674	1.2077693525181	4.82056176688929	0.08413467462797347	9.972237322572065	0	0	27.51249243346568	-9.574761816981319	3.193584977006026	17.47972434079336	0.3050787420878396	-0.409962318533062	0	0	-4.996530848596723	1.318694052595396	-3.300789044572375	13.93333337603632	-14.86052171412487	18.48978540856277	0.07592888261683671	45.00000025534055	0	0	-3.934542957843096	16.13027069029179	-35.34393675685705	96.00762408404806	45.00000025534055	0	0
63.45	2.412303530300437	-0.9894457849284806	-747.4918672846958	0	0.9399999999999999	0	-9.584027079884113	-2.504640137975407	2.67841444982306	5.756997582671713	0.1004785628469758	10.19751423767156	0	0	26.30243846988766	-11.54690062492346	6.364186571972225	13.44822684883088	0.2347158370672006	0.5641699918950513	0	0	-5.983001395731408	1.030978731640734	-2.0040545980007	13.8943999329098	-14.91427175135187	18.99004347855701	0.07677884314000737	45.00000025534055	0	0	-4.166839594487466	16.24913675963723	-35.70952839956606	96.20981502437856	45.00000025534055	0	0
63.475	3.255752267329596	-1.452436825633275	-749.444392820071	0	0.9399999999999999	0	-11.03276588495145	-4.024304149996809	4.32191513792111	6.811210251941179	0.1188780449419661	9.939997213300343	0	0	26.01869936489069	-12.37007850142453	8.707775145511663	12.01038985411815	0.2096208474024832	2.869705724630172	0	0	-6.907879864782486	0.4929957899908339	-0.7156594354604907	13.49998641142406	-14.88868009814903	18.72124081594951	0.08077850236894599	45.00000025534055	0	0	-4.421550690503643	16.25047194556886	-35.69194691014039	96.50859633976199	45.00000025534055	0	0
63.5	3.888494419788993	-1.264316089237365	-750.8914398825324	0	0.9399999999999999	0	-11.84578840755285	-6.190469843200687	5.332472827507199	8.019550565979195	0.1399675619065117	8.899617802862547	0	0	26.2166532802811	-11.40244518221315	9.523252819928715	12.49013139140479	0.2179939167867142	4.309945762039942	0	0	-7.265885013251498	-0.5309110379829292	-0.0338421239104956	12.80525757223298	-14.81721149971952	17.8781064410886	0.08820484840210857	45.00000025534055	0	0	-4.74228432529447	16.26962913935746	-35.56194529567765	96.91394166243921	45.00000025534055	0	0
63.525	4.504404195133586	-0.5978395595132284	-751.7748317573408	0	0.9399999999999999	0	-12.04311165700636	-9.052002068811369	5.393636762505539	9.724374290274278	0.169722349061573	6.754875990964524	0	0	26.35571787059729	-8.8513024368785	9.344859023023082	14.63227920018918	0.2553814491143837	4.956135112661126	0	0	-6.95126976366334	-1.91257378415744	-0.02800434440078059	11.73042208290566	-14.64798434897633	16.99880242696393	0.1043181948152794	45.00000025534055	0	0	-5.400358826119223	16.26237484385373	-35.28960240022014	97.47940821192826	45.00000025534055	0	0
